<svg width="185" height="25" viewBox="0 0 185 25" fill="none" xmlns="http://www.w3.org/2000/svg">
<path d="M6 20.6058H17.4688V24.3715H0.140625V21.6215L11.3906 5.41833H0.15625V1.62146H17.2188V4.30896L6 20.6058ZM28.2181 24.684C25.739 24.684 23.7181 23.9235 22.1556 22.4027C20.6035 20.8819 19.8275 18.8558 19.8275 16.3246V15.8871C19.8275 14.1892 20.1556 12.6735 20.8119 11.3402C21.4681 9.99646 22.3952 8.96521 23.5931 8.24646C24.8015 7.51729 26.1765 7.15271 27.7181 7.15271C30.0306 7.15271 31.8483 7.88188 33.1712 9.34021C34.5046 10.7985 35.1712 12.8663 35.1712 15.5433V17.3871H24.4056C24.5515 18.4913 24.989 19.3767 25.7181 20.0433C26.4577 20.71 27.39 21.0433 28.515 21.0433C30.2546 21.0433 31.614 20.4131 32.5931 19.1527L34.8119 21.6371C34.1348 22.5954 33.2181 23.3454 32.0619 23.8871C30.9056 24.4183 29.6244 24.684 28.2181 24.684ZM27.7025 10.809C26.8067 10.809 26.0775 11.111 25.515 11.7152C24.9629 12.3194 24.6087 13.184 24.4525 14.309H30.7337V13.9496C30.7129 12.9496 30.4421 12.1788 29.9212 11.6371C29.4004 11.085 28.6608 10.809 27.7025 10.809ZM42.5456 7.46521L42.6862 9.41833C43.8946 7.90792 45.5144 7.15271 47.5456 7.15271C49.3373 7.15271 50.6706 7.67875 51.5456 8.73083C52.4206 9.78292 52.8685 11.3558 52.8894 13.4496V24.3715H48.3737V13.559C48.3737 12.6006 48.1654 11.9079 47.7487 11.4808C47.3321 11.0433 46.6394 10.8246 45.6706 10.8246C44.3998 10.8246 43.4467 11.3663 42.8112 12.4496V24.3715H38.2956V7.46521H42.5456ZM56.2637 15.7933C56.2637 13.1579 56.8523 11.059 58.0294 9.49646C59.2169 7.93396 60.8367 7.15271 62.8887 7.15271C64.5346 7.15271 65.894 7.76729 66.9669 8.99646V0.37146H71.4981V24.3715H67.42L67.2012 22.5746C66.0762 23.9808 64.6283 24.684 62.8575 24.684C60.8679 24.684 59.269 23.9027 58.0606 22.3402C56.8627 20.7673 56.2637 18.585 56.2637 15.7933ZM60.7794 16.1215C60.7794 17.7048 61.0554 18.9183 61.6075 19.7621C62.1596 20.6058 62.9617 21.0277 64.0137 21.0277C65.4096 21.0277 66.394 20.4392 66.9669 19.2621V12.5902C66.4044 11.4131 65.4304 10.8246 64.045 10.8246C61.8679 10.8246 60.7794 12.5902 60.7794 16.1215ZM85.7631 22.6527C84.6485 24.0069 83.1069 24.684 81.1381 24.684C79.3256 24.684 77.9402 24.1631 76.9819 23.1215C76.034 22.0798 75.5496 20.5538 75.5287 18.5433V7.46521H80.0444V18.3871C80.0444 20.1475 80.8465 21.0277 82.4506 21.0277C83.9819 21.0277 85.034 20.4965 85.6069 19.434V7.46521H90.1381V24.3715H85.8881L85.7631 22.6527ZM108.169 15.0746H99.1687V24.3715H94.4812V1.62146H109.294V5.41833H99.1687V11.2933H108.169V15.0746ZM111.309 15.7621C111.309 14.085 111.632 12.5902 112.277 11.2777C112.923 9.96521 113.85 8.94958 115.059 8.23083C116.277 7.51208 117.689 7.15271 119.293 7.15271C121.574 7.15271 123.434 7.85063 124.871 9.24646C126.319 10.6423 127.126 12.5381 127.293 14.934L127.324 16.0902C127.324 18.684 126.6 20.7673 125.152 22.3402C123.705 23.9027 121.762 24.684 119.324 24.684C116.887 24.684 114.939 23.9027 113.481 22.3402C112.033 20.7777 111.309 18.6527 111.309 15.9652V15.7621ZM115.824 16.0902C115.824 17.6944 116.126 18.9235 116.731 19.7777C117.335 20.6215 118.199 21.0433 119.324 21.0433C120.418 21.0433 121.272 20.6267 121.887 19.7933C122.501 18.9496 122.809 17.6058 122.809 15.7621C122.809 14.1892 122.501 12.9704 121.887 12.1058C121.272 11.2413 120.408 10.809 119.293 10.809C118.189 10.809 117.335 11.2413 116.731 12.1058C116.126 12.96 115.824 14.2881 115.824 16.0902ZM140.246 11.6996C139.631 11.6163 139.089 11.5746 138.621 11.5746C136.912 11.5746 135.792 12.1527 135.261 13.309V24.3715H130.746V7.46521H135.011L135.136 9.48083C136.042 7.92875 137.298 7.15271 138.902 7.15271C139.402 7.15271 139.871 7.22042 140.308 7.35583L140.246 11.6996ZM147.307 7.46521L147.448 9.35583C148.646 7.88708 150.266 7.15271 152.307 7.15271C154.485 7.15271 155.979 8.01208 156.792 9.73083C157.979 8.01208 159.672 7.15271 161.87 7.15271C163.703 7.15271 165.068 7.68917 165.964 8.76208C166.86 9.82458 167.307 11.4288 167.307 13.5746V24.3715H162.776V13.5902C162.776 12.6319 162.589 11.934 162.214 11.4965C161.839 11.0485 161.177 10.8246 160.229 10.8246C158.875 10.8246 157.938 11.4704 157.417 12.7621L157.432 24.3715H152.917V13.6058C152.917 12.6267 152.724 11.9183 152.339 11.4808C151.953 11.0433 151.297 10.8246 150.37 10.8246C149.089 10.8246 148.162 11.3558 147.589 12.4183V24.3715H143.073V7.46521H147.307ZM180.588 19.6996C180.588 19.1475 180.312 18.7152 179.76 18.4027C179.218 18.0798 178.343 17.7933 177.135 17.5433C173.114 16.6996 171.104 14.9913 171.104 12.4183C171.104 10.9183 171.724 9.66833 172.963 8.66833C174.213 7.65792 175.843 7.15271 177.854 7.15271C180 7.15271 181.713 7.65792 182.994 8.66833C184.286 9.67875 184.932 10.9913 184.932 12.6058H180.416C180.416 11.96 180.208 11.4288 179.791 11.0121C179.375 10.585 178.724 10.3715 177.838 10.3715C177.078 10.3715 176.489 10.5433 176.072 10.8871C175.656 11.2308 175.447 11.6683 175.447 12.1996C175.447 12.6996 175.682 13.1058 176.151 13.4183C176.63 13.7204 177.432 13.986 178.557 14.2152C179.682 14.434 180.63 14.684 181.401 14.9652C183.786 15.8402 184.979 17.3558 184.979 19.5121C184.979 21.0538 184.317 22.3038 182.994 23.2621C181.671 24.21 179.963 24.684 177.869 24.684C176.453 24.684 175.192 24.434 174.088 23.934C172.994 23.4235 172.135 22.7308 171.51 21.8558C170.885 20.9704 170.572 20.0173 170.572 18.9965H174.854C174.895 19.7985 175.192 20.4131 175.744 20.8402C176.296 21.2673 177.036 21.4808 177.963 21.4808C178.828 21.4808 179.479 21.3194 179.916 20.9965C180.364 20.6631 180.588 20.2308 180.588 19.6996Z" fill="white"/>
</svg>
